<?xml version="1.0" standalone="no"?>
<!DOCTYPE svg PUBLIC "-//W3C//DTD SVG 20010904//EN"
 "http://www.w3.org/TR/2001/REC-SVG-20010904/DTD/svg10.dtd">
<svg version="1.0" xmlns="http://www.w3.org/2000/svg"
 width="120.000000pt" height="120.000000pt" viewBox="0 0 120.000000 120.000000"
 preserveAspectRatio="xMidYMid meet">
<metadata>
Created by potrace 1.14, written by Peter Selinger 2001-2017
</metadata>
<g transform="translate(0.000000,120.000000) scale(0.100000,-0.100000)"
fill="#000000" stroke="none">
<path d="M29 1169 c-18 -18 -20 -29 -16 -83 5 -58 37 -156 59 -184 8 -9 7 -20
-2 -40 -41 -86 -58 -170 -55 -273 3 -130 7 -145 57 -248 74 -155 226 -277 393
-316 59 -14 216 -14 263 -1 12 3 32 8 45 11 12 2 55 21 96 41 84 42 191 140
236 218 98 168 110 368 34 545 -20 48 -20 49 -1 82 29 53 43 99 49 165 5 54 3
64 -16 83 -29 29 -64 26 -103 -8 -18 -15 -52 -40 -74 -54 l-41 -26 -85 43
c-47 23 -92 43 -99 44 -8 0 -25 4 -39 8 -49 13 -214 13 -270 -2 -30 -8 -90
-31 -132 -53 -88 -44 -95 -43 -182 29 -54 45 -86 50 -117 19z"/>
</g>
</svg>
